Coordinates
version=1
nRows=18
nColumns=22
inDegrees=yes

Units are S.I. units (second, meters, Newtons, ...)
If the header above contains a line with 'inDegrees', this indicates whether rotational values are in degrees (yes) or radians (no).

endheader
time	pelvis_tilt	pelvis_list	pelvis_rotation	pelvis_tx	pelvis_ty	pelvis_tz	hip_flexion_r	hip_adduction_r	hip_rotation_r	knee_angle_r	ankle_angle_r	subtalar_angle_r	hip_flexion_l	hip_adduction_l	hip_rotation_l	knee_angle_l	ankle_angle_l	subtalar_angle_l	lumbar_extension	lumbar_bending	lumbar_rotation
      0.01000000	     -0.29592009	     -1.35584526	     -0.49986532	      1.09194854	      0.93615180	     -0.01895940	      2.68919487	      0.59855356	     -9.07682366	    -14.16693882	     10.06218220	      0.25983879	      2.96946299	     -1.94349951	     -9.76645593	    -14.99859423	     11.71344838	     -3.03279924	     -6.84174870	     -1.70142176	     -5.33112531
      0.02000000	     -0.65858195	     -1.58314417	      0.13785612	      1.09108305	      0.93536519	     -0.02090333	      3.11237779	      0.72134638	     -9.79008474	    -14.22910359	     10.00802309	      0.34913609	      3.78137844	     -2.11053559	     -9.05026603	    -15.51035919	     11.92522755	     -3.10582017	     -6.52110156	     -1.22208841	     -5.94302958
      0.03000000	     -0.65100371	     -1.57680350	      0.12469603	      1.09105737	      0.93539178	     -0.02082750	      3.10816739	      0.71659046	     -9.79082202	    -14.23114825	     10.00774814	      0.34921654	      3.77854813	     -2.10788418	     -9.04915760	    -15.51957449	     11.92382665	     -3.10605551	     -6.51088813	     -1.20690891	     -5.94551553
      0.04000000	     -0.64195483	     -1.57082775	      0.11089495	      1.09103189	      0.93542373	     -0.02073322	      3.10387174	      0.71328748	     -9.79192234	    -14.23573602	     10.00689600	      0.34941447	      3.77501344	     -2.10745401	     -9.04861706	    -15.53040390	     11.92074745	     -3.10608886	     -6.50133448	     -1.19021166	     -5.94640252
      0.05000000	     -0.61642940	     -1.58188171	      0.08724835	      1.09094825	      0.93547691	     -0.02060480	      3.10250863	      0.72782502	     -9.79240929	    -14.27064727	      9.99905736	      0.35303000	      3.77170134	     -2.13190325	     -9.07084422	    -15.57029319	     11.89690347	     -3.10407089	     -6.52510078	     -1.15193766	     -5.93197845
      0.06000000	     -0.59041676	     -1.58587186	      0.06475035	      1.09091467	      0.93553017	     -0.02045578	      3.08989161	      0.73782708	     -9.78383069	    -14.29094424	      9.98910615	      0.35894337	      3.76366386	     -2.15074133	     -9.09406381	    -15.60979758	     11.88742447	     -3.09531266	     -6.53803236	     -1.12374000	     -5.91557061
      0.07000000	     -0.56460202	     -1.58588489	      0.04241970	      1.09087922	      0.93558118	     -0.02029232	      3.07942234	      0.74485713	     -9.77105915	    -14.31380169	      9.98376079	      0.36341892	      3.75463752	     -2.16349402	     -9.09780783	    -15.64542045	     11.88265706	     -3.08708392	     -6.55049444	     -1.10053625	     -5.90501162
      0.08000000	     -0.53119862	     -1.58834046	      0.02105268	      1.09085182	      0.93563871	     -0.02010812	      3.06449030	      0.75526812	     -9.75471135	    -14.34561883	      9.98035477	      0.36788649	      3.74432710	     -2.18174051	     -9.09629915	    -15.69529655	     11.87746727	     -3.07809376	     -6.57008240	     -1.07566185	     -5.88902747
      0.09000000	     -0.49310986	     -1.59252500	     -0.00392183	      1.09082298	      0.93569889	     -0.01990333	      3.04674793	      0.76960622	     -9.73545163	    -14.37893149	      9.97897188	      0.37145528	      3.73464925	     -2.20210997	     -9.08789162	    -15.75686281	     11.87482132	     -3.06910879	     -6.59639536	     -1.04753145	     -5.87210740
      0.10000000	     -0.45264694	     -1.59760742	     -0.02979443	      1.09080300	      0.93575979	     -0.01968231	      3.02596616	      0.78619442	     -9.71397095	    -14.41166917	      9.97882412	      0.37300303	      3.72658401	     -2.22421876	     -9.07158097	    -15.82727942	     11.87501865	     -3.06118465	     -6.62352587	     -1.01748351	     -5.85586084
      0.11000000	     -0.39640348	     -1.62537769	     -0.05802790	      1.09080721	      0.93583612	     -0.01942603	      2.97603246	      0.83291860	     -9.68507800	    -14.42300885	      9.97745933	      0.36994572	      3.71072641	     -2.27787638	     -9.07943845	    -15.92007260	     11.90390683	     -3.03937408	     -6.66524946	     -0.96143844	     -5.84213510
      0.12000000	     -0.34861924	     -1.63656834	     -0.07932400	      1.09079863	      0.93589884	     -0.01918031	      2.94474306	      0.86045952	     -9.65471806	    -14.45256296	      9.97026488	      0.35727831	      3.70545813	     -2.30825877	     -9.04803304	    -16.01088625	     11.91463339	     -3.02427688	     -6.69816430	     -0.92265860	     -5.83247146
      0.13000000	     -0.30762885	     -1.63262892	     -0.10013686	      1.09077616	      0.93594986	     -0.01892806	      2.93005772	      0.87063206	     -9.62605080	    -14.49887754	      9.96900928	      0.35048828	      3.70929996	     -2.32027756	     -9.00361009	    -16.10037501	     11.90975431	     -3.02102690	     -6.72369024	     -0.90335724	     -5.82170166
      0.14000000	     -0.26278995	     -1.65467634	     -0.11154538	      1.09073492	      0.93599313	     -0.01865604	      2.90596235	      0.91346179	     -9.59816749	    -14.53346751	      9.98181841	      0.31930833	      3.72976641	     -2.37006830	     -8.98526216	    -16.22675579	     11.93676335	     -3.00781222	     -6.75820081	     -0.85378034	     -5.83076943
      0.15000000	     -0.22296762	     -1.64682508	     -0.12762447	      1.09065663	      0.93603592	     -0.01837758	      2.90250936	      0.92208379	     -9.56297066	    -14.59126024	      9.97944588	      0.30784687	      3.74215715	     -2.38058128	     -8.94085297	    -16.32060133	     11.93203263	     -3.00470765	     -6.79411313	     -0.84172839	     -5.83151628
      0.16000000	     -0.19114375	     -1.66164341	     -0.12282051	      1.09053793	      0.93604680	     -0.01809405	      2.90733650	      0.95835106	     -9.54103388	    -14.64740722	     10.00637942	      0.25449844	      3.79420052	     -2.42827493	     -8.93410624	    -16.46469374	     11.95769944	     -2.98948343	     -6.82651564	     -0.80448576	     -5.85794089
      0.17000000	     -0.15435961	     -1.64939473	     -0.12822319	      1.09037215	      0.93608197	     -0.01779420	      2.91826908	      0.96458502	     -9.50158983	    -14.71737317	     10.00326537	      0.23931112	      3.81634078	     -2.43758092	     -8.89332493	    -16.55556711	     11.94967358	     -2.98649285	     -6.87564343	     -0.80150790	     -5.86965533
      0.18000000	     -0.11752062	     -1.63878149	     -0.12198476	      1.09016315	      0.93611505	     -0.01749073	      2.93292222	      0.97374943	     -9.46877603	    -14.79168292	     10.01039649	      0.21906622	      3.85054813	     -2.45356589	     -8.86748626	    -16.66111924	     11.94088043	     -2.98298734	     -6.93290124	     -0.79760686	     -5.89225573
